<svg xmlns="http://www.w3.org/2000/svg" viewBox="0 0 1120 800" font-family="Segoe UI, Arial, sans-serif" font-size="12.5">
  <defs>
    <marker id="rel" markerWidth="12" markerHeight="12" refX="9" refY="4" orient="auto" markerUnits="strokeWidth">
      <path d="M0,0 L9,4 L0,8 Z" fill="#64748b"/>
    </marker>
  </defs>
  <rect x="0" y="0" width="1120" height="800" fill="#ffffff"/>
  <text x="24" y="34" font-size="20" font-weight="700" fill="#0f172a">ParkWatch — Entity Relationship Diagram</text>
  <text x="24" y="56" fill="#64748b">Each service owns its tables (no cross-service FKs). Dashed = logical cross-service reference. Money = integer IDR.</text>

  <!-- users (identity) -->
  <g>
    <rect x="40" y="90" width="220" height="116" rx="6" fill="#ffffff" stroke="#0d9488"/>
    <rect x="40" y="90" width="220" height="26" rx="6" fill="#0d9488"/>
    <text x="52" y="108" fill="#ffffff" font-weight="700">users   ·  identity</text>
    <text x="52" y="134" fill="#0f172a" font-weight="600">id  (PK, uuid)</text>
    <text x="52" y="152" fill="#334155">email  (unique)</text>
    <text x="52" y="170" fill="#334155">password_hash  ·  name</text>
    <text x="52" y="188" fill="#334155">role  (officer | member)</text>
  </g>

  <!-- rule_versions (rules) -->
  <g>
    <rect x="840" y="90" width="240" height="152" rx="6" fill="#ffffff" stroke="#2563eb"/>
    <rect x="840" y="90" width="240" height="26" rx="6" fill="#2563eb"/>
    <text x="852" y="108" fill="#ffffff" font-weight="700">rule_versions   ·  rules</text>
    <text x="852" y="134" fill="#0f172a" font-weight="600">id  (PK, uuid)</text>
    <text x="852" y="152" fill="#1d4ed8" font-weight="600">version  (unique, ++)</text>
    <text x="852" y="170" fill="#1d4ed8" font-weight="600">is_active  (one true)</text>
    <text x="852" y="188" fill="#334155">config  (JSONB)</text>
    <text x="852" y="206" fill="#64748b" font-size="11">base_amounts, time/repeat mult.</text>
    <text x="852" y="224" fill="#334155">created_by  ·  created_at</text>
  </g>
  <text x="838" y="262" fill="#1d4ed8" font-size="11" text-anchor="end">▲ versioning: publishing inserts a new row;</text>
  <text x="1080" y="278" fill="#1d4ed8" font-size="11" text-anchor="end">old versions are never modified</text>

  <!-- plates (violation) -->
  <g>
    <rect x="40" y="300" width="220" height="80" rx="6" fill="#ffffff" stroke="#0d9488"/>
    <rect x="40" y="300" width="220" height="26" rx="6" fill="#0d9488"/>
    <text x="52" y="318" fill="#ffffff" font-weight="700">plates   ·  violation</text>
    <text x="52" y="344" fill="#0f172a" font-weight="600">plate  (PK)</text>
    <text x="52" y="362" fill="#334155">owner_email</text>
  </g>

  <!-- violations (violation) - tall, snapshot -->
  <g>
    <rect x="360" y="300" width="300" height="320" rx="6" fill="#ffffff" stroke="#0d9488"/>
    <rect x="360" y="300" width="300" height="26" rx="6" fill="#0d9488"/>
    <text x="372" y="318" fill="#ffffff" font-weight="700">violations   ·  violation</text>
    <text x="372" y="344" fill="#0f172a" font-weight="600">id  (PK, uuid)</text>
    <text x="372" y="362" fill="#334155">plate  ·  owner_email</text>
    <text x="372" y="380" fill="#334155">violation_type  ·  location</text>
    <text x="372" y="398" fill="#334155">occurred_at  ·  photo_object</text>
    <text x="372" y="416" fill="#334155">issued_by_email</text>
    <!-- snapshot block -->
    <rect x="368" y="430" width="284" height="150" rx="5" fill="#fef3c7" stroke="#d97706"/>
    <text x="376" y="448" fill="#92400e" font-weight="700" font-size="12">FINE SNAPSHOT  (captured at issue, immutable)</text>
    <text x="376" y="468" fill="#78350f">rule_version_id  ·  rule_version</text>
    <text x="376" y="486" fill="#78350f">base_amount</text>
    <text x="376" y="504" fill="#78350f">time_multiplier</text>
    <text x="376" y="522" fill="#78350f">repeat_multiplier</text>
    <text x="376" y="540" fill="#78350f">prior_unpaid_count</text>
    <text x="376" y="558" fill="#78350f" font-weight="700">final_amount  (IDR)</text>
    <text x="376" y="574" fill="#b45309" font-size="11">= base × time × repeat, never recomputed</text>
    <text x="372" y="600" fill="#334155">payment_status  (unpaid | paid)</text>
  </g>

  <!-- invoices (payment) -->
  <g>
    <rect x="760" y="330" width="300" height="146" rx="6" fill="#ffffff" stroke="#9333ea"/>
    <rect x="760" y="330" width="300" height="26" rx="6" fill="#9333ea"/>
    <text x="772" y="348" fill="#ffffff" font-weight="700">invoices   ·  payment</text>
    <text x="772" y="374" fill="#0f172a" font-weight="600">id  (PK, uuid)</text>
    <text x="772" y="392" fill="#334155">violation_id  (unique)</text>
    <text x="772" y="410" fill="#334155">plate  ·  violation_type</text>
    <text x="772" y="428" fill="#334155">owner_email  ·  amount</text>
    <text x="772" y="446" fill="#334155">status  (open | paid)</text>
  </g>

  <!-- payments (payment) -->
  <g>
    <rect x="760" y="520" width="300" height="148" rx="6" fill="#ffffff" stroke="#9333ea"/>
    <rect x="760" y="520" width="300" height="26" rx="6" fill="#9333ea"/>
    <text x="772" y="538" fill="#ffffff" font-weight="700">payments   ·  payment</text>
    <text x="772" y="564" fill="#0f172a" font-weight="600">id  (PK, uuid)</text>
    <text x="772" y="582" fill="#334155">invoice_id  (FK → invoices.id)</text>
    <text x="772" y="600" fill="#334155">amount  ·  scenario</text>
    <text x="772" y="618" fill="#334155">status  (paid | failed)</text>
    <text x="772" y="636" fill="#334155">transaction_id</text>
  </g>

  <!-- notifications (notification) -->
  <g>
    <rect x="40" y="470" width="220" height="132" rx="6" fill="#ffffff" stroke="#dc2626"/>
    <rect x="40" y="470" width="220" height="26" rx="6" fill="#dc2626"/>
    <text x="52" y="488" fill="#ffffff" font-weight="700">notifications   ·  notification</text>
    <text x="52" y="514" fill="#0f172a" font-weight="600">id  (PK, uuid)</text>
    <text x="52" y="532" fill="#334155">recipient_email</text>
    <text x="52" y="550" fill="#334155">kind</text>
    <text x="52" y="568" fill="#334155">message</text>
    <text x="52" y="586" fill="#334155">created_at</text>
  </g>

  <!-- relationships -->
  <!-- violations.plate -> plates.plate -->
  <path d="M360,352 L260,348" stroke="#64748b" stroke-width="1.4" fill="none" marker-end="url(#rel)"/>
  <text x="270" y="338" fill="#475569" font-size="11">plate</text>

  <!-- violations.rule_version_id ⇢ rule_versions.id (dashed cross-service) -->
  <path d="M660,440 C760,440 760,200 838,170" stroke="#d97706" stroke-width="1.6" fill="none" stroke-dasharray="6 4" marker-end="url(#rel)"/>
  <text x="690" y="300" fill="#b45309" font-size="11">snapshots rule_version_id</text>

  <!-- invoices.violation_id ⇢ violations.id (dashed cross-service via event) -->
  <path d="M760,392 L662,392" stroke="#9333ea" stroke-width="1.6" fill="none" stroke-dasharray="6 4" marker-end="url(#rel)"/>
  <text x="666" y="382" fill="#7e22ce" font-size="11">violation_id (event)</text>

  <!-- payments.invoice_id -> invoices.id (real FK) -->
  <path d="M910,520 L910,478" stroke="#9333ea" stroke-width="1.6" fill="none" marker-end="url(#rel)"/>
  <text x="918" y="502" fill="#7e22ce" font-size="11">invoice_id (FK)</text>

  <!-- notifications.recipient_email ⇢ users.email -->
  <path d="M150,470 C150,300 150,250 150,208" stroke="#64748b" stroke-width="1.2" fill="none" stroke-dasharray="4 4" marker-end="url(#rel)"/>
  <text x="158" y="430" fill="#475569" font-size="11">recipient_email ⇢ users.email</text>

  <!-- plates.owner_email ⇢ users.email -->
  <path d="M150,300 L150,208" stroke="#64748b" stroke-width="1.2" fill="none" stroke-dasharray="4 4"/>

  <!-- legend -->
  <rect x="360" y="660" width="400" height="120" rx="6" fill="#f8fafc" stroke="#cbd5e1"/>
  <text x="376" y="682" font-weight="700" fill="#0f172a">Why the snapshot matters</text>
  <text x="376" y="704" fill="#334155" font-size="11.5">A violation copies the rule values used at issue time into its own row.</text>
  <text x="376" y="722" fill="#334155" font-size="11.5">Publishing a new rule_versions row changes only future violations —</text>
  <text x="376" y="740" fill="#334155" font-size="11.5">already-issued fines keep their original amount and rule_version.</text>
  <text x="376" y="762" fill="#64748b" font-size="11">History shows each fine exactly as priced when it was issued.</text>
</svg>
